<?xml version="1.0" encoding="UTF-8"?>
<svg version="1.1" xmlns="http://www.w3.org/2000/svg" width="1536" height="1024">
<path d="M0 0 C506.88 0 1013.76 0 1536 0 C1536 337.92 1536 675.84 1536 1024 C1029.12 1024 522.24 1024 0 1024 C0 686.08 0 348.16 0 0 Z " fill="#FEFEFE" transform="translate(0,0)"/>
<path d="M0 0 C1.31081543 0.00684814 2.62163086 0.01369629 3.97216797 0.02075195 C30.629387 0.46113541 51.80119043 11.05119043 70.4375 29.6875 C87.82636149 48.16316534 93.01643798 71.00325167 92.47265625 95.609375 C91.54243126 119.63175428 81.6757818 141.09517398 64.1875 157.4375 C42.69895231 176.59097854 16.01752343 180.64129787 -11.8125 179.4375 C-16.65738242 179.01558554 -21.18343573 177.92420677 -25.8125 176.4375 C-26.43737305 176.24414062 -27.06224609 176.05078125 -27.70605469 175.8515625 C-50.79620246 168.56348858 -68.77287702 153.45527553 -80 131.9375 C-87.05665189 117.42037231 -89.27238233 103.74423933 -89.375 87.6875 C-89.38394287 86.99447784 -89.39288574 86.30145569 -89.40209961 85.58743286 C-89.60427407 62.19854841 -80.89672983 41.36302464 -64.5625 24.625 C-56.46005445 16.64762496 -47.15770454 11.33172249 -36.875 6.625 C-36.27969482 6.34672363 -35.68438965 6.06844727 -35.07104492 5.78173828 C-23.89036023 0.93495355 -12.05254604 -0.09738644 0 0 Z " fill="#FE4018" transform="translate(930.8125,399.5625)"/>
<path d="M0 0 C16.5 0 33 0 50 0 C50.33 24.75 50.66 49.5 51 75 C53.97 72.36 56.94 69.72 60 67 C76.41227135 56.53152115 98.68340741 54.07481745 117.57592773 58.12719727 C134.24957643 62.30534273 149.74718507 72.01980902 159.10302734 86.73486328 C171.61013556 107.98859061 171.15469855 131.10651886 171.09765625 155.01953125 C171.09578803 157.33265655 171.09436603 159.64578224 171.09336853 161.95890808 C171.08957519 168.00697956 171.07977256 174.0550265 171.06866455 180.10308838 C171.05656924 187.38123315 171.05203302 194.65938618 171.04621124 201.93753815 C171.03655873 212.95837576 171.01737998 223.97915968 171 235 C154.5 235 138 235 121 235 C120.93941406 228.05324219 120.87882813 221.10648438 120.81640625 213.94921875 C120.77588389 209.53319735 120.73509637 205.11718156 120.69335938 200.70117188 C120.62722176 193.70078518 120.56203528 186.70039914 120.50268555 179.69995117 C120.4547442 174.0524216 120.40239332 168.40494815 120.34705925 162.75748634 C120.32676974 160.60908224 120.30803579 158.46066284 120.29092598 156.31223106 C120.26658232 153.28972252 120.23657276 150.26731704 120.20532227 147.24487305 C120.1995668 146.36804871 120.19381134 145.49122437 120.18788147 144.58782959 C120.04581816 132.40129652 119.72205284 120.04464526 110.97265625 110.6015625 C101.14918587 102.62607169 90.25334311 101.05440439 78 102 C68.90303538 104.10017753 61.77454388 107.85040782 56.6875 115.75 C52.04691082 123.42922154 51.70106999 131.90596759 51.68115234 140.66040039 C51.66608391 142.19855911 51.66608391 142.19855911 51.65071106 143.76779175 C51.62003585 147.12774133 51.60288758 150.48761182 51.5859375 153.84765625 C51.56721326 156.18892592 51.54763892 158.53018892 51.5272522 160.8714447 C51.47605785 167.01158715 51.43636424 173.15175145 51.39910889 179.29199219 C51.3519266 186.67106268 51.29038336 194.05002584 51.23126221 201.42900848 C51.14320487 212.61929536 51.0733293 223.80956328 51 235 C34.17 235 17.34 235 0 235 C0 157.45 0 79.9 0 0 Z " fill="#FE4019" transform="translate(652,342)"/>
<path d="M0 0 C45.87 0 91.74 0 139 0 C139 13.86 139 27.72 139 42 C109.96 42 80.92 42 51 42 C51 57.84 51 73.68 51 90 C77.07 90 103.14 90 130 90 C130 103.2 130 116.4 130 130 C104.26 130 78.52 130 52 130 C52 146.5 52 163 52 180 C81.7 180 111.4 180 142 180 C142 193.86 142 207.72 142 222 C95.14 222 48.28 222 0 222 C0 148.74 0 75.48 0 0 Z " fill="#FE3F18" transform="translate(362,355)"/>
<path d="M0 0 C16.5 0 33 0 50 0 C50 14.85 50 29.7 50 45 C62.21 45 74.42 45 87 45 C87 57.87 87 70.74 87 84 C74.79 84 62.58 84 50 84 C50.09089532 97.49039352 50.09089532 97.49039352 50.20898438 110.98046875 C50.26321153 116.48646438 50.31432528 121.99236033 50.34643555 127.49853516 C50.37253855 131.9401946 50.41298999 136.38151733 50.46318626 140.82296753 C50.4798078 142.51329342 50.49135133 144.20367748 50.49761391 145.89407349 C50.50730668 148.27088308 50.53542585 150.64684034 50.56762695 153.0234375 C50.56619186 153.71468216 50.56475677 154.40592682 50.5632782 155.11811829 C50.66749168 160.59459936 51.66659375 166.34674806 55.3808794 170.57015991 C59.907796 174.5466167 63.59570606 175.08983301 69.421875 175.31640625 C70.34581055 175.35451416 71.26974609 175.39262207 72.22167969 175.43188477 C73.38602539 175.47498779 74.55037109 175.51809082 75.75 175.5625 C81.31875 175.7790625 81.31875 175.7790625 87 176 C87 190.19 87 204.38 87 219 C66.90264211 221.36439505 66.90264211 221.36439505 59.875 221.3125 C58.62589844 221.30512817 58.62589844 221.30512817 57.3515625 221.29760742 C40.89998697 220.9900866 24.97297504 216.78589731 13 205 C3.56509901 194.40416393 -0.17287235 180.89070764 -0.11352539 166.98706055 C-0.11367142 166.08900192 -0.11381744 165.1909433 -0.1139679 164.26567078 C-0.11327287 161.30599528 -0.10549965 158.34638321 -0.09765625 155.38671875 C-0.09579061 153.33120254 -0.0943674 151.27568588 -0.09336853 149.22016907 C-0.08955482 143.81642423 -0.0797343 138.41270637 -0.06866455 133.00897217 C-0.0584258 127.49231328 -0.05386563 121.97565003 -0.04882812 116.45898438 C-0.03811101 105.63930917 -0.02052348 94.81966105 0 84 C-6.6 84 -13.2 84 -20 84 C-20 71.13 -20 58.26 -20 45 C-13.4 45 -6.8 45 0 45 C0 30.15 0 15.3 0 0 Z " fill="#FE3F18" transform="translate(541,358)"/>
<path d="M0 0 C9.21164463 6.53631549 14.3175645 15.88017653 17.19921875 26.671875 C19.44936303 41.85509153 18.58292386 57.84032175 9.2421875 70.5546875 C0.90605532 80.13313743 -8.09461416 85.38988054 -20.7890625 86.75 C-30.61430761 87.21638822 -38.93874782 83.67419302 -46.38671875 77.39453125 C-54.53762199 69.6264493 -60.35187327 58.31185598 -60.65625 46.96875 C-61.02260491 29.51437217 -60.05924684 16.69898467 -47.57421875 3.59375 C-34.79125599 -8.59764708 -14.66529362 -9.28000547 0 0 Z " fill="#FEFDFD" transform="translate(953.3828125,449.5078125)"/>
<path d="M0 0 C3.298968 2.03553345 6.0612561 4.21686526 8.9375 6.8125 C9.2675 4.5025 9.5975 2.1925 9.9375 -0.1875 C15.5475 -0.1875 21.1575 -0.1875 26.9375 -0.1875 C26.9375 21.2625 26.9375 42.7125 26.9375 64.8125 C21.6575 64.8125 16.3775 64.8125 10.9375 64.8125 C10.4425 60.3575 10.4425 60.3575 9.9375 55.8125 C9.48375 56.534375 9.03 57.25625 8.5625 58 C3.04878872 63.9075478 -3.03576786 66.13146991 -11.0625 66.4375 C-20.11302706 66.0546686 -26.13949886 63.13600484 -32.4375 56.6875 C-40.7503226 46.35536826 -41.19873503 34.95628609 -40.34179688 22.14794922 C-39.47727872 14.9189451 -35.62767497 9.34229358 -30.0625 4.8125 C-21.39821058 -1.16228504 -10.30169833 -4.11602845 0 0 Z " fill="#FE3E18" transform="translate(689.0625,638.1875)"/>
<path d="M0 0 C2.5625 2.75 2.5625 2.75 4 5 C4.33 2.36 4.66 -0.28 5 -3 C10.28 -3 15.56 -3 21 -3 C21 18.78 21 40.56 21 63 C15.72 63 10.44 63 5 63 C4.505 59.04 4.505 59.04 4 55 C3.55269531 55.40992188 3.10539063 55.81984375 2.64453125 56.2421875 C2.03996094 56.78101563 1.43539062 57.31984375 0.8125 57.875 C0.22082031 58.40867187 -0.37085938 58.94234375 -0.98046875 59.4921875 C-7.46723172 64.3353026 -15.30245162 63.75947034 -23 63 C-30.69313426 60.72356397 -37.08347778 55.74824045 -41.28125 48.9140625 C-46.59311883 38.70768596 -46.9999257 25.18792485 -43.94140625 14.1953125 C-40.36184158 6.57054874 -35.07065719 0.6472292 -27.375 -2.9375 C-18.49887965 -5.73864252 -7.78854761 -5.35783605 0 0 Z " fill="#FE3E18" transform="translate(922,641)"/>
<path d="M0 0 C44.94405594 0 44.94405594 0 52.69140625 7.67578125 C58.67025745 14.40378971 59.45967125 19.36091151 59.25390625 28.35546875 C58.8062915 34.78046194 56.60127089 39.39872911 52 44 C50.47242978 44.9202026 48.92045954 45.80061342 47.3515625 46.6484375 C46.53768066 47.09106934 45.72379883 47.53370117 44.88525391 47.98974609 C44.26312012 48.32312988 43.64098633 48.65651367 43 49 C43.4031543 49.69037354 43.80630859 50.38074707 44.22167969 51.09204102 C46.06478666 54.24866607 47.90739733 57.40558055 49.75 60.5625 C50.38421875 61.64853516 51.0184375 62.73457031 51.671875 63.85351562 C52.90203392 65.9614442 54.13060421 68.07030085 55.35742188 70.18017578 C56.34755823 71.8799491 57.34225694 73.57709288 58.34570312 75.26904297 C61 79.78298611 61 79.78298611 61 82 C58.11987347 82.24453905 55.260522 82.42157916 52.375 82.5625 C51.56675781 82.63791016 50.75851562 82.71332031 49.92578125 82.79101562 C47.36349227 82.8847579 45.44369033 82.79272009 43 82 C40.31242381 79.37839791 38.7394727 76.30065398 37 73 C35.93347591 71.19697246 34.86308243 69.39622878 33.7890625 67.59765625 C32.73100001 65.75453751 31.67633048 63.90946701 30.625 62.0625 C30.07972656 61.11826172 29.53445313 60.17402344 28.97265625 59.20117188 C28.45832031 58.30076172 27.94398438 57.40035156 27.4140625 56.47265625 C26.71724365 55.25461304 26.71724365 55.25461304 26.00634766 54.01196289 C25 52 25 52 25 50 C22.03 50 19.06 50 16 50 C16 60.56 16 71.12 16 82 C10.72 82 5.44 82 0 82 C0 54.94 0 27.88 0 0 Z " fill="#FE3C17" transform="translate(364,621)"/>
<path d="M0 0 C7.97977653 4.71732646 12.24969897 10.72893393 15.25 19.4375 C16.25 24.4375 16.25 24.4375 16.25 36.4375 C1.07 36.7675 -14.11 37.0975 -29.75 37.4375 C-27.54106615 45.21466847 -27.54106615 45.21466847 -21.75 49.4375 C-16.95627521 51.03540826 -13.14810878 50.99146763 -8.4375 49.125 C-5.53446113 47.55801513 -5.53446113 47.55801513 -3.75 44.4375 C-1.87060547 44.09692383 -1.87060547 44.09692383 0.3828125 44.14453125 C1.18847656 44.15419922 1.99414062 44.16386719 2.82421875 44.17382812 C3.66597656 44.19896484 4.50773437 44.22410156 5.375 44.25 C6.22449219 44.26353516 7.07398438 44.27707031 7.94921875 44.29101562 C10.04974837 44.32641781 12.14995293 44.38022599 14.25 44.4375 C11.52649052 52.37553374 8.30802171 57.51435758 0.84375 61.828125 C-8.28318924 65.73181588 -19.83040914 66.18863768 -29.25 62.9375 C-36.91901922 59.25792007 -41.8824716 53.40403826 -45.05859375 45.61328125 C-48.22794504 35.63967295 -48.70734651 21.95175178 -43.9921875 12.47265625 C-43.58226562 11.80105469 -43.17234375 11.12945313 -42.75 10.4375 C-42.36070312 9.79683594 -41.97140625 9.15617188 -41.5703125 8.49609375 C-32.25251117 -4.26764003 -13.6505914 -6.29896693 0 0 Z " fill="#FE3E18" transform="translate(488.75,639.5625)"/>
<path d="M0 0 C5.79723046 5.2076816 9.55481475 10.6181766 10.34765625 18.421875 C10.7288202 28.1562158 9.49371643 34.92392573 2.98046875 42.28125 C-3.07882846 48.13892436 -9.0780013 50.99484034 -17.5 51.375 C-25.49895379 51.06788485 -32.86158223 48.0674155 -38.59375 42.43359375 C-45.40452051 34.9717937 -46.64403172 28.76683901 -46.40625 18.73046875 C-45.59262083 11.25916239 -42.561828 6.15027095 -37.125 1.0625 C-25.95040971 -7.88138112 -11.76691264 -8.11856834 0 0 Z " fill="#FE3F18" transform="translate(1080,528)"/>
<path d="M0 0 C5.28 0 10.56 0 16 0 C16.01458252 1.24088379 16.02916504 2.48176758 16.04418945 3.76025391 C16.10230723 8.37870621 16.17953947 12.99667784 16.26245117 17.61474609 C16.29563713 19.61076029 16.32368868 21.60686689 16.34643555 23.60302734 C16.38009793 26.4779384 16.43241977 29.35200743 16.48828125 32.2265625 C16.49467117 33.11429352 16.5010611 34.00202454 16.50764465 34.91665649 C16.62752305 40.00644128 17.18314597 43.58977833 20 48 C23.65495566 51.22496088 27.09100313 51.4687037 31.78515625 51.28125 C35.10840692 50.85924991 37.27647788 49.94537294 40 48 C43.38165669 42.80686798 43.46859485 38.21762403 43.51171875 32.2265625 C43.52966995 31.3028183 43.54762115 30.3790741 43.56611633 29.42733765 C43.62005424 26.49327074 43.654062 23.55936499 43.6875 20.625 C43.72068766 18.62888391 43.75517865 16.63278903 43.79101562 14.63671875 C43.87577126 9.75792907 43.94266117 4.87918581 44 0 C49.28 0 54.56 0 60 0 C60 21.45 60 42.9 60 65 C54.72 65 49.44 65 44 65 C43.505 61.535 43.505 61.535 43 58 C42.20335937 58.74056641 42.20335937 58.74056641 41.390625 59.49609375 C40.68421875 60.13675781 39.9778125 60.77742187 39.25 61.4375 C38.55390625 62.07558594 37.8578125 62.71367188 37.140625 63.37109375 C31.59575114 67.59045944 23.61236782 66.51890779 17 66 C10.87870076 64.4023024 6.26719138 60.35857937 3 55 C0.02999879 48.46117711 -0.40484195 43.06711508 -0.29296875 35.9375 C-0.28872391 34.90560547 -0.28447906 33.87371094 -0.28010559 32.81054688 C-0.26341801 29.54009033 -0.22578395 26.27026783 -0.1875 23 C-0.17244036 20.77214437 -0.1587542 18.544279 -0.14648438 16.31640625 C-0.11354693 10.87736279 -0.06183324 5.43878861 0 0 Z " fill="#FE3C17" transform="translate(740,638)"/>
<path d="M0 0 C6.70505674 6.66332402 9.01095208 14.32820451 9.11352539 23.62841797 C9.11336844 25.41634896 9.10780118 27.20428528 9.09765625 28.9921875 C9.0962413 29.93812775 9.09482635 30.88406799 9.09336853 31.8586731 C9.08779484 34.86414829 9.0752472 37.86954753 9.0625 40.875 C9.0574816 42.91926975 9.05291929 44.96354068 9.04882812 47.0078125 C9.03783403 52.00523736 9.02058757 57.00260583 9 62 C3.72 62 -1.56 62 -7 62 C-7.01458252 60.86570557 -7.02916504 59.73141113 -7.04418945 58.56274414 C-7.1025494 54.31878525 -7.17977728 50.0753362 -7.26245117 45.83178711 C-7.29552431 44.00179372 -7.32360999 42.17170263 -7.34643555 40.34155273 C-7.38030807 37.69733387 -7.43263641 35.05399621 -7.48828125 32.41015625 C-7.49467117 31.60353043 -7.5010611 30.7969046 -7.50764465 29.96583557 C-7.66693731 23.68777599 -8.38420539 16.61579461 -13 12 C-17.12004649 9.93997675 -20.43250003 9.685 -25 10 C-27.76441969 11.40759341 -27.76441969 11.40759341 -30 13 C-30.66 13 -31.32 13 -32 13 C-34.47288276 19.3161998 -35.45957024 24.86747639 -35.51171875 31.62890625 C-35.52966995 32.50401352 -35.54762115 33.37912079 -35.56611633 34.28074646 C-35.61975302 37.04128377 -35.65396354 39.80165295 -35.6875 42.5625 C-35.72071438 44.44859088 -35.75520778 46.3346597 -35.79101562 48.22070312 C-35.87545188 52.81367976 -35.94248333 57.4066106 -36 62 C-41.28 62 -46.56 62 -52 62 C-52 40.55 -52 19.1 -52 -3 C-46.72 -3 -41.44 -3 -36 -3 C-35.67 -0.69 -35.34 1.62 -35 4 C-34.56429687 3.59007812 -34.12859375 3.18015625 -33.6796875 2.7578125 C-24.28574996 -5.74146432 -10.94766345 -6.99325833 0 0 Z " fill="#FE3D17" transform="translate(1020,641)"/>
<path d="M0 0 C3.96772366 2.64259588 6.89750378 6.09578881 9.0234375 10.34765625 C9.15759222 13.02001835 9.06662291 15.67016113 9.0234375 18.34765625 C4.0734375 18.34765625 -0.8765625 18.34765625 -5.9765625 18.34765625 C-6.9665625 16.36765625 -7.9565625 14.38765625 -8.9765625 12.34765625 C-11.56409406 11.05389047 -13.52615235 11.17933228 -16.4140625 11.16015625 C-17.38214844 11.14597656 -18.35023438 11.13179687 -19.34765625 11.1171875 C-22.20922977 11.15616174 -22.20922977 11.15616174 -24.9765625 13.34765625 C-25.72741356 15.7602892 -25.72741356 15.7602892 -24.9765625 18.34765625 C-19.28382562 23.01045718 -12.52689977 24.60272002 -5.58789062 26.703125 C0.56335198 28.64100756 4.99384351 30.47823026 8.8359375 35.91015625 C10.75752486 41.47264599 11.18314029 47.03101831 9.21484375 52.66015625 C6.20742891 58.15467194 1.76446014 61.05714551 -3.9765625 63.34765625 C-12.74661201 65.67440408 -24.16372046 65.86641401 -32.21484375 61.48046875 C-37.11519138 58.32946916 -39.84612061 55.88680516 -41.9765625 50.34765625 C-42.47451251 47.66936202 -42.74200203 45.06855772 -42.9765625 42.34765625 C-37.6965625 42.34765625 -32.4165625 42.34765625 -26.9765625 42.34765625 C-25.9865625 44.32765625 -24.9965625 46.30765625 -23.9765625 48.34765625 C-20.62458407 50.58230854 -19.39865004 50.61874274 -15.4765625 50.59765625 C-14.5175 50.6028125 -13.5584375 50.60796875 -12.5703125 50.61328125 C-9.74033353 50.52748234 -9.74033353 50.52748234 -6.9765625 48.34765625 C-6.39310774 45.39019133 -6.39310774 45.39019133 -6.9765625 42.34765625 C-9.60643697 39.9539473 -12.17389119 38.75087977 -15.53125 37.6640625 C-16.39363281 37.37595703 -17.25601563 37.08785156 -18.14453125 36.79101562 C-19.9410053 36.20644867 -21.73787748 35.62310373 -23.53515625 35.04101562 C-31.52364035 32.36826648 -38.00837555 29.28403015 -41.9765625 21.34765625 C-42.74291269 14.4756308 -42.10270402 9.92352317 -37.9765625 4.34765625 C-28.71772342 -4.91118283 -11.50084256 -5.47565712 0 0 Z " fill="#FE3E18" transform="translate(564.9765625,639.65234375)"/>
<path d="M0 0 C5.61 0 11.22 0 17 0 C17 4.95 17 9.9 17 15 C21.95 15 26.9 15 32 15 C32 19.62 32 24.24 32 29 C27.05 29 22.1 29 17 29 C17.07390562 33.80641399 17.15663776 38.61093246 17.26245117 43.41650391 C17.29574214 45.05182134 17.32376106 46.68725482 17.34643555 48.32275391 C17.37990628 50.67140243 17.43221436 53.01898337 17.48828125 55.3671875 C17.49467117 56.10057343 17.5010611 56.83395935 17.50764465 57.58956909 C17.53994543 59.87324756 17.53994543 59.87324756 18 63 C22.48418393 65.98945595 26.65341189 65.62259378 32 66 C32 70.62 32 75.24 32 80 C29.16560863 80.10901505 26.33549797 80.18777904 23.5 80.25 C22.70851563 80.28351563 21.91703125 80.31703125 21.1015625 80.3515625 C15.21691298 80.44803216 10.92274112 79.28036882 6 76 C1.600912 71.600912 0.12443701 67.18447166 -0.22705078 61.01416016 C-0.22673793 59.52242346 -0.21566592 58.03066038 -0.1953125 56.5390625 C-0.19106766 55.3532106 -0.19106766 55.3532106 -0.18673706 54.1434021 C-0.17560955 51.63710916 -0.15051926 49.13118355 -0.125 46.625 C-0.11496058 44.91797394 -0.10583641 43.21094223 -0.09765625 41.50390625 C-0.07569463 37.3357976 -0.04121671 33.16796092 0 29 C-2.31 29 -4.62 29 -7 29 C-7 24.38 -7 19.76 -7 15 C-4.69 15 -2.38 15 0 15 C0 10.05 0 5.1 0 0 Z " fill="#FE401A" transform="translate(1055,623)"/>
<path d="M0 0 C5.28 0 10.56 0 16 0 C16 4.95 16 9.9 16 15 C20.95 15 25.9 15 31 15 C31 19.29 31 23.58 31 28 C26.05 28 21.1 28 16 28 C16.09692673 32.78767045 16.19964748 37.57447297 16.31738281 42.36157227 C16.35566618 43.99007549 16.39052024 45.61866309 16.421875 47.24731445 C16.46754002 49.58836014 16.52553077 51.9288253 16.5859375 54.26953125 C16.59748871 54.99775589 16.60903992 55.72598053 16.62094116 56.47627258 C16.72878512 60.16961374 16.89884276 61.84826414 19 65 C21.88595946 65.58481121 21.88595946 65.58481121 25.125 65.6875 C27.06375 65.790625 29.0025 65.89375 31 66 C31 70.62 31 75.24 31 80 C28.16560863 80.10901505 25.33549797 80.18777904 22.5 80.25 C21.70851563 80.28351563 20.91703125 80.31703125 20.1015625 80.3515625 C14.20976433 80.44814936 9.78301345 79.55034303 5 76 C0.23453055 70.51366207 -0.70754529 65.55194124 -0.48828125 58.46875 C-0.47766914 57.15396667 -0.47766914 57.15396667 -0.46684265 55.81262207 C-0.43907969 53.04084215 -0.37637935 50.27115869 -0.3125 47.5 C-0.28739356 45.60940438 -0.26458452 43.71877678 -0.24414062 41.828125 C-0.18931293 37.21795472 -0.1031703 32.60933151 0 28 C-2.64 28 -5.28 28 -8 28 C-8 23.71 -8 19.42 -8 15 C-5.36 15 -2.72 15 0 15 C0 10.05 0 5.1 0 0 Z " fill="#FE3C17" transform="translate(600,623)"/>
<path d="M0 0 C0 5.61 0 11.22 0 17 C-2.96223958 17.42317708 -5.92447917 17.84635417 -8.88671875 18.26953125 C-13.66839166 19.3914545 -16.27044717 20.90567075 -19 25 C-19.32491235 26.95520809 -19.32491235 26.95520809 -19.31884766 29.10424805 C-19.33871735 29.92487228 -19.35858704 30.74549652 -19.37905884 31.59098816 C-19.39638565 32.9129998 -19.39638565 32.9129998 -19.4140625 34.26171875 C-19.43342865 35.16751175 -19.4527948 36.07330475 -19.4727478 37.00654602 C-19.53253542 39.90010151 -19.57892568 42.7936968 -19.625 45.6875 C-19.66318054 47.64910591 -19.70223231 49.61069506 -19.7421875 51.57226562 C-19.83823632 56.3813744 -19.92227043 61.19056166 -20 66 C-25.61 66 -31.22 66 -37 66 C-37 44.55 -37 23.1 -37 1 C-31.39 1 -25.78 1 -20 1 C-19.67 3.64 -19.34 6.28 -19 9 C-18.46375 8.236875 -17.9275 7.47375 -17.375 6.6875 C-12.51260388 1.18531492 -7.04613132 0 0 0 Z " fill="#FE3E17" transform="translate(861,637)"/>
<path d="M0 0 C4.52008982 3.1210144 6.8985232 6.65520391 8.625 11.8125 C9.37478975 18.62163714 9.46960558 25.20918846 5.90234375 31.2265625 C3.11000196 34.69350674 -0.23025363 36.43091788 -4.375 37.8125 C-10.37928909 38.40115579 -14.45192157 37.10527795 -19.375 33.8125 C-24.18316786 29.00433214 -25.47437362 24.08928338 -25.75 17.4375 C-25.64100863 12.09692282 -24.53774247 8.1383155 -21.375 3.8125 C-15.27819758 -1.98689742 -7.83543118 -2.75691097 0 0 Z " fill="#FEFCFB" transform="translate(918.375,652.1875)"/>
<path d="M0 0 C4.28149872 3.96821833 7.31442598 8.11187247 7.765625 14.046875 C7.88798262 22.08169206 7.50486582 27.07380908 2 33.25 C-2.50370219 37.17630447 -6.41148403 36.7100845 -12.23046875 36.65234375 C-16.37967975 36.29352039 -18.45748713 35.27860228 -21.4375 32.375 C-26.5768676 25.7077123 -27.26030136 19.63729704 -26.4375 11.375 C-24.80481034 6.02439205 -22.19405928 2.42407646 -17.4375 -0.625 C-11.6366439 -2.5586187 -5.5393254 -2.61859019 0 0 Z " fill="#FEFCFB" transform="translate(691.4375,652.625)"/>
<path d="M0 0 C3.361875 -0.0825 6.72375 -0.165 10.1875 -0.25 C11.23832764 -0.28641602 12.28915527 -0.32283203 13.37182617 -0.36035156 C17.70724433 -0.41189935 20.30754134 -0.40661312 24.11328125 1.828125 C27.33734981 5.53947515 27.28351591 9.08474642 27.21484375 13.77734375 C26.91380347 16.89174226 26.0602292 18.65560125 24 21 C19.27671357 23.64762345 14.4343763 23.22594442 9.1875 23.125 C6.155625 23.08375 3.12375 23.0425 0 23 C0 15.41 0 7.82 0 0 Z " fill="#FEFBFA" transform="translate(380,635)"/>
<path d="M0 0 C3.72171738 2.02382595 6.68005695 4.90817654 8 9 C8 10.32 8 11.64 8 13 C-1.57 13 -11.14 13 -21 13 C-19.87212449 5.10487145 -19.87212449 5.10487145 -16.625 2.625 C-16.01914062 2.14289062 -15.41328125 1.66078125 -14.7890625 1.1640625 C-10.11291557 -1.87849599 -5.21683562 -1.19265138 0 0 Z " fill="#FEFCFB" transform="translate(480,651)"/>
<path d="M0 0 C0.33 0 0.66 0 1 0 C1.33 20.46 1.66 40.92 2 62 C5.96 62 9.92 62 14 62 C13.97381592 60.87505127 13.94763184 59.75010254 13.9206543 58.59106445 C13.82998255 54.40734843 13.77268963 50.22371879 13.7253418 46.03930664 C13.7002361 44.23023868 13.66614405 42.42127178 13.62280273 40.61254883 C13.56197421 38.00837249 13.53375191 35.40553969 13.51171875 32.80078125 C13.48591232 31.99538406 13.4601059 31.18998688 13.43351746 30.36018372 C13.43132619 25.94805286 13.59431036 24.48898028 16.53051758 20.94995117 C17.34544678 20.30646729 18.16037598 19.6629834 19 19 C18.83923477 19.57300842 18.67846954 20.14601685 18.51283264 20.73638916 C18.00801589 22.96461839 17.8439395 24.93765725 17.79467773 27.21777344 C17.77473251 28.03832214 17.75478729 28.85887085 17.73423767 29.70428467 C17.70916893 31.01855438 17.70916893 31.01855438 17.68359375 32.359375 C17.66281265 33.26375305 17.64203156 34.1681311 17.62062073 35.09991455 C17.5553406 37.98320055 17.49634048 40.8665761 17.4375 43.75 C17.39429429 45.70704044 17.35067935 47.66407188 17.30664062 49.62109375 C17.19968128 54.4139712 17.09835327 59.20693854 17 64 C11.39 64 5.78 64 0 64 C0 42.88 0 21.76 0 0 Z " fill="#FE4727" transform="translate(824,639)"/>
<path d="M0 0 C0 14.52 0 29.04 0 44 C-0.33 42.68 -0.66 41.36 -1 40 C-1.66 40 -2.32 40 -3 40 C-3 27.13 -3 14.26 -3 1 C-1 0 -1 0 0 0 Z " fill="#FE4929" transform="translate(756,638)"/>
<path d="M0 0 C0.66 0 1.32 0 2 0 C2 5.61 2 11.22 2 17 C-0.64 17 -3.28 17 -6 17 C-3 15 -3 15 0 15 C0 10.05 0 5.1 0 0 Z " fill="#FE330F" transform="translate(859,637)"/>
<path d="M0 0 C5.28 0 10.56 0 16 0 C15.67 0.99 15.34 1.98 15 3 C10.71 2.67 6.42 2.34 2 2 C2 3.65 2 5.3 2 7 C0 4 0 4 0 0 Z " fill="#FE462F" transform="translate(522,682)"/>
</svg>
